<svg width="261" height="67" viewBox="0 0 261 67" fill="none" xmlns="http://www.w3.org/2000/svg">
<g clip-path="url(#clip0_1550_240)">
<path fill-rule="evenodd" clip-rule="evenodd" d="M26.636 9.67738L29.0595 9.02662C34.9855 7.43536 40.9848 8.10971 46.1422 10.5199C42.5238 9.29721 38.5181 9.0942 34.5535 10.1588L32.13 10.8096C21.4223 13.6848 15.0687 24.7174 17.9388 35.4515C20.8088 46.1856 31.8158 52.5565 42.5234 49.6813L44.9469 49.0305C55.2817 46.2554 61.5604 35.8812 59.4046 25.5107C59.5438 25.9391 59.6725 26.3735 59.7903 26.8139C63.3779 40.2316 55.4358 54.0223 42.0513 57.6163L39.6278 58.2671C26.2432 61.8611 12.4846 53.8975 8.89697 40.4798C5.30938 27.0622 13.2514 13.2714 26.636 9.67738ZM6.47348 41.1306C2.52713 26.3711 11.2634 11.2013 25.9864 7.24789L28.4099 6.59713C43.1329 2.64368 58.2674 11.4037 62.2138 26.1631C66.1601 40.9226 57.4239 56.0924 42.7009 60.0458L40.2774 60.6966C25.5544 64.65 10.4198 55.89 6.47348 41.1306ZM47.391 21.0106C47.2565 21.5137 47.5523 22.0272 48.1437 23.054C48.7352 24.0808 49.0309 24.5943 49.5329 24.7292C50.0348 24.864 50.5469 24.5676 51.5712 23.9749C52.5955 23.3822 53.1076 23.0858 53.242 22.5827C53.3765 22.0795 53.0807 21.5661 52.4893 20.5393C51.8978 19.5124 51.6021 18.999 51.1001 18.8641C50.5982 18.7293 50.0861 19.0256 49.0618 19.6184C48.0375 20.2111 47.5254 20.5075 47.391 21.0106ZM32.951 31.8461C32.3595 30.8192 32.0638 30.3058 32.1982 29.8026C32.3327 29.2995 32.8448 29.0031 33.8691 28.4104C34.8933 27.8177 35.4055 27.5213 35.9074 27.6562C36.4093 27.791 36.7051 28.3044 37.2966 29.3313C37.888 30.3581 38.1838 30.8716 38.0493 31.3747C37.9149 31.8778 37.4027 32.1742 36.3785 32.7669C35.3542 33.3597 34.8421 33.6561 34.3401 33.5212C33.8382 33.3863 33.5425 32.8729 32.951 31.8461Z" fill="#060708"/>
<path d="M249.413 9.66316C249.413 8.59576 250.276 7.73047 251.341 7.73047H253.902C254.967 7.73047 255.831 8.59576 255.831 9.66316V52.1824C255.831 53.2498 254.967 54.1151 253.902 54.1151H251.341C250.276 54.1151 249.413 53.2498 249.413 52.1824V49.5694C248.405 51.1774 247.088 52.4762 245.463 53.4657C243.838 54.4346 241.935 54.9191 239.754 54.9191C237.512 54.9191 235.414 54.4965 233.459 53.6512C231.505 52.806 229.777 51.6412 228.275 50.1569C226.794 48.652 225.632 46.9203 224.789 44.9619C223.945 43.0034 223.523 40.9006 223.523 38.6535C223.523 36.4065 223.945 34.3037 224.789 32.3452C225.632 30.3662 226.794 28.6345 228.275 27.1502C229.777 25.6452 231.505 24.4702 233.459 23.6249C235.414 22.7797 237.512 22.3571 239.754 22.3571C241.935 22.3571 243.838 22.8519 245.463 23.8414C247.088 24.8103 248.405 26.0885 249.413 27.6759V9.66316ZM239.816 48.7035C241.626 48.7035 243.21 48.2603 244.568 47.3739C245.926 46.4668 246.975 45.2505 247.715 43.7249C248.477 42.1994 248.857 40.5089 248.857 38.6535C248.857 36.7775 248.477 35.0768 247.715 33.5512C246.954 32.0257 245.895 30.8197 244.537 29.9332C243.2 29.0262 241.626 28.5726 239.816 28.5726C238.026 28.5726 236.391 29.0262 234.91 29.9332C233.449 30.8403 232.277 32.0566 231.392 33.5822C230.528 35.1077 230.096 36.7982 230.096 38.6535C230.096 40.5295 230.538 42.2303 231.423 43.7559C232.328 45.2608 233.511 46.4668 234.971 47.3739C236.453 48.2603 238.067 48.7035 239.816 48.7035Z" fill="#060708"/>
<path d="M213.648 25.1241C213.648 24.0567 214.512 23.1914 215.577 23.1914H218.138C219.203 23.1914 220.067 24.0567 220.067 25.1241V52.1818C220.067 53.2492 219.203 54.1145 218.138 54.1145H215.577C214.512 54.1145 213.648 53.2492 213.648 52.1818V25.1241Z" fill="#060708"/>
<path d="M190.263 52.841C189.986 53.6051 189.262 54.1138 188.451 54.1138H182.913C182.102 54.1138 181.378 53.6059 181.101 52.8426L171.243 25.7231C170.785 24.4625 171.716 23.1289 173.055 23.1289H175.798C176.61 23.1289 177.335 23.6384 177.611 24.4034L185.667 46.6923L193.753 24.4013C194.03 23.6374 194.754 23.1289 195.565 23.1289H198.281C199.62 23.1289 200.551 24.4611 200.094 25.7215L190.263 52.841Z" fill="#060708"/>
<path d="M162.381 25.244C162.314 24.1325 163.195 23.194 164.306 23.194H166.746C167.812 23.194 168.675 24.0593 168.675 25.1267V52.1844C168.675 53.2518 167.812 54.1171 166.746 54.1171H164.051C163.027 54.1171 162.182 53.3153 162.125 52.2908L161.979 49.6332C161.074 51.2206 159.85 52.4987 158.307 53.4677C156.764 54.4366 154.944 54.9211 152.845 54.9211C150.582 54.9211 148.453 54.4984 146.458 53.6532C144.462 52.7874 142.704 51.5917 141.181 50.0661C139.68 48.5406 138.507 46.7883 137.664 44.8092C136.82 42.8095 136.398 40.6655 136.398 38.3772C136.398 36.1714 136.81 34.0995 137.633 32.1617C138.456 30.2032 139.597 28.4921 141.058 27.0284C142.518 25.5647 144.205 24.4206 146.118 23.596C148.052 22.7507 150.12 22.3281 152.321 22.3281C154.563 22.3281 156.538 22.8435 158.245 23.8743C159.973 24.8844 161.403 26.1832 162.534 27.7706L162.381 25.244ZM152.691 48.7055C154.501 48.7055 156.085 48.2623 157.443 47.3758C158.801 46.4687 159.85 45.2524 160.59 43.7269C161.352 42.2014 161.732 40.5109 161.732 38.6555C161.732 36.7795 161.352 35.0787 160.59 33.5532C159.829 32.0277 158.77 30.8217 157.412 29.9352C156.075 29.0281 154.501 28.5746 152.691 28.5746C150.901 28.5746 149.266 29.0281 147.785 29.9352C146.304 30.8423 145.131 32.0586 144.267 33.5841C143.403 35.1097 142.971 36.8001 142.971 38.6555C142.971 40.5315 143.413 42.2323 144.298 43.7578C145.203 45.2627 146.386 46.4687 147.846 47.3758C149.328 48.2623 150.942 48.7055 152.691 48.7055Z" fill="#060708"/>
<path d="M120.106 54.1171C119.396 54.1171 118.82 53.5402 118.82 52.8286V25.1267C118.82 24.0593 119.684 23.194 120.749 23.194H123.31C124.375 23.194 125.239 24.0593 125.239 25.1267V26.4718C126.308 25.1937 127.625 24.1835 129.188 23.4414C130.752 22.6992 132.439 22.3281 134.249 22.3281C134.687 22.3281 135.124 22.3505 135.56 22.3953C136.703 22.5129 137.305 23.7282 136.882 24.7991L135.815 27.5049C135.426 28.4911 134.313 28.9399 133.259 28.8465C133.075 28.8301 132.89 28.822 132.706 28.822C131.348 28.822 130.104 29.1621 128.972 29.8424C127.841 30.5021 126.936 31.3989 126.257 32.5327C125.578 33.6666 125.239 34.9241 125.239 36.3054V52.8286C125.239 53.5402 124.663 54.1171 123.953 54.1171H120.106Z" fill="#060708"/>
<path d="M93.2606 54.9202C90.2571 54.9202 87.4594 54.3429 84.8674 53.1885C82.296 52.0134 80.0434 50.3951 78.1097 48.3336C76.1966 46.2514 74.6949 43.8497 73.6046 41.1285C72.5349 38.4072 72 35.5108 72 32.4391C72 29.2025 72.576 26.2236 73.728 23.5023C74.88 20.7811 76.4537 18.4206 78.4491 16.4209C80.4446 14.4006 82.7177 12.8339 85.2686 11.7206C87.84 10.6074 90.5349 10.0508 93.3531 10.0508C96.5417 10.0508 99.6069 10.7929 102.549 12.2772C104.889 13.458 106.988 15.1083 108.846 17.2282C109.618 18.109 109.315 19.4554 108.287 20.0149L106.383 21.0509C105.289 21.6464 103.943 21.3512 103.045 20.4863C101.917 19.3996 100.672 18.5289 99.3086 17.8743C97.3543 16.926 95.3486 16.4519 93.2914 16.4519C91.296 16.4519 89.4034 16.8642 87.6137 17.6888C85.824 18.4928 84.24 19.6266 82.8617 21.0903C81.4834 22.5334 80.3931 24.2342 79.5909 26.1926C78.8091 28.1305 78.4183 30.2436 78.4183 32.5319C78.4183 34.7377 78.7989 36.8096 79.56 38.7474C80.3417 40.6852 81.4114 42.386 82.7691 43.8497C84.1474 45.2928 85.7314 46.4266 87.5211 47.2512C89.3314 48.0759 91.2651 48.4882 93.3223 48.4882C94.8446 48.4882 96.3051 48.2408 97.704 47.746C99.1029 47.2512 100.399 46.5503 101.592 45.6432C102.806 44.7156 103.865 43.6126 104.77 42.3345C105.675 41.0563 106.395 39.6339 106.93 38.0671H99.6943C98.6292 38.0671 97.7657 37.2018 97.7657 36.1344V34.3099C97.7657 33.2425 98.6292 32.3772 99.6943 32.3772H111.922C113.329 32.3772 114.491 33.5133 114.36 34.9169C114.158 37.0737 113.656 39.1339 112.855 41.0976C111.765 43.8188 110.242 46.2205 108.288 48.3026C106.354 50.3642 104.102 51.9825 101.53 53.1576C98.9589 54.3326 96.2023 54.9202 93.2606 54.9202Z" fill="#060708"/>
<path d="M201.14 50.8943C201.14 49.3752 201.14 48.6157 201.611 48.1438C202.082 47.6719 202.84 47.6719 204.355 47.6719C205.871 47.6719 206.628 47.6719 207.099 48.1438C207.57 48.6157 207.57 49.3752 207.569 50.8943C207.569 52.4133 207.569 53.1728 207.098 53.6448C206.627 54.1167 205.87 54.1167 204.354 54.1167C202.839 54.1167 202.081 54.1167 201.61 53.6448C201.14 53.1728 201.14 52.4133 201.14 50.8943Z" fill="#060708"/>
<path d="M213.687 15.3357C213.687 13.8166 213.687 13.0571 214.158 12.5852C214.629 12.1133 215.387 12.1133 216.902 12.1133C218.417 12.1133 219.175 12.1133 219.646 12.5852C220.117 13.0571 220.116 13.8166 220.116 15.3357C220.116 16.8547 220.116 17.6142 219.645 18.0862C219.174 18.5581 218.416 18.5581 216.901 18.5581C215.386 18.5581 214.628 18.5581 214.157 18.0862C213.687 17.6142 213.687 16.8547 213.687 15.3357Z" fill="#060708"/>
</g>
<defs>
<clipPath id="clip0_1550_240">
<rect width="261" height="67" fill="white"/>
</clipPath>
</defs>
</svg>
